<svg width="888" height="1411" viewBox="0 0 888 1411" fill="none" xmlns="http://www.w3.org/2000/svg">
<g filter="url(#filter0_di_548_1639)">
<path d="M654.319 95.8824C670.011 95.8824 682.733 108.604 682.733 124.296V124.296C682.733 133.712 690.365 141.345 699.781 141.345L716.615 141.345C724.985 141.345 731.77 134.56 731.77 126.191V126.191C731.77 109.452 745.339 95.8824 762.078 95.8824L779.885 95.8824C806.458 95.8824 828 117.424 828 143.998L828 1273.23C828 1294.81 810.502 1312.31 788.918 1312.31V1312.31L788.918 1325.51C788.918 1337.93 778.848 1348 766.427 1348V1348C754.006 1348 743.937 1337.93 743.937 1325.51L743.937 1287.74C743.937 1275.32 733.867 1265.25 721.446 1265.25V1265.25C709.025 1265.25 698.955 1275.32 698.955 1287.74L698.955 1293.34C698.955 1313.4 682.696 1329.66 662.638 1329.66L644.467 1329.66C634.445 1329.66 626.322 1321.53 626.322 1311.51V1311.51L228.287 1311.51C223.922 1311.51 220.384 1307.97 220.384 1303.61V1303.61C220.384 1295.97 214.192 1289.78 206.553 1289.78L192.561 1289.78C183.085 1289.78 175.403 1297.46 175.403 1306.93V1306.93C175.403 1325.21 160.588 1340.02 142.313 1340.02L138.348 1340.02L129.808 1340.02C114.06 1340.02 101.294 1327.26 101.294 1311.51V1311.51V1311.51C78.488 1311.51 60 1293.02 60 1270.22L60 155.882C60 122.745 86.8629 95.8824 120 95.8824L378.323 95.8824C390.873 95.8824 401.047 85.7088 401.047 73.1589V73.1589C401.047 64.2346 408.281 57 417.206 57L424.828 57C437.962 57 448.609 67.6471 448.609 80.7811L448.609 87.09C448.609 99.104 458.348 108.843 470.362 108.843L473.848 108.843C483.937 108.843 492.115 100.665 492.115 90.5762V90.5762C492.115 79.3008 501.256 70.1602 512.531 70.1602L531.244 70.1602C538.956 70.1602 545.208 76.4119 545.208 84.1237V84.1237C545.208 90.6179 550.472 95.8824 556.967 95.8824L654.319 95.8824Z" fill="url(#paint0_linear_548_1639)"/>
</g>
<defs>
<filter id="filter0_di_548_1639" x="0" y="0" width="888" height="1411" filterUnits="userSpaceOnUse" color-interpolation-filters="sRGB">
<feFlood flood-opacity="0" result="BackgroundImageFix"/>
<feColorMatrix in="SourceAlpha" type="matrix" values="0 0 0 0 0 0 0 0 0 0 0 0 0 0 0 0 0 0 127 0" result="hardAlpha"/>
<feOffset dy="3"/>
<feGaussianBlur stdDeviation="30"/>
<feComposite in2="hardAlpha" operator="out"/>
<feColorMatrix type="matrix" values="0 0 0 0 0 0 0 0 0 0 0 0 0 0 0 0 0 0 0.6 0"/>
<feBlend mode="normal" in2="BackgroundImageFix" result="effect1_dropShadow_548_1639"/>
<feBlend mode="normal" in="SourceGraphic" in2="effect1_dropShadow_548_1639" result="shape"/>
<feColorMatrix in="SourceAlpha" type="matrix" values="0 0 0 0 0 0 0 0 0 0 0 0 0 0 0 0 0 0 127 0" result="hardAlpha"/>
<feOffset dy="4"/>
<feGaussianBlur stdDeviation="10"/>
<feComposite in2="hardAlpha" operator="arithmetic" k2="-1" k3="1"/>
<feColorMatrix type="matrix" values="0 0 0 0 1 0 0 0 0 1 0 0 0 0 1 0 0 0 0.22 0"/>
<feBlend mode="normal" in2="shape" result="effect2_innerShadow_548_1639"/>
</filter>
<linearGradient id="paint0_linear_548_1639" x1="806.984" y1="98.8734" x2="436.885" y2="902.944" gradientUnits="userSpaceOnUse">
<stop stop-color="#2D2E44"/>
<stop offset="1" stop-color="#000123"/>
</linearGradient>
</defs>
</svg>
