<svg width="470" height="1453" viewBox="0 0 470 1453" fill="none" xmlns="http://www.w3.org/2000/svg">
<g filter="url(#filter0_di_548_1639)">
<path d="M314.459 97.1474C330.662 97.1474 343.797 110.283 343.797 126.486L343.797 132.915C343.797 139.086 348.8 144.089 354.971 144.089V144.089C361.142 144.089 366.145 139.086 366.145 132.915L366.145 119.075C366.145 106.965 375.962 97.1474 388.072 97.1474V97.1474C400.183 97.1474 410 106.965 410 119.075L410 1335.34C410 1345.17 402.026 1353.15 392.189 1353.15V1353.15L392.189 1379.75C392.189 1385.41 387.6 1390 381.939 1390V1390C376.279 1390 371.69 1385.41 371.69 1379.75L371.69 1314.81C371.69 1309.15 367.101 1304.56 361.44 1304.56V1304.56C355.779 1304.56 351.191 1309.15 351.191 1314.81L351.191 1354.51C351.191 1363.65 343.781 1371.06 334.64 1371.06V1371.06C325.499 1371.06 318.089 1363.65 318.089 1354.51L318.089 1352.32L141.252 1352.32C136.745 1352.32 133.092 1348.67 133.092 1344.16L133.092 1340.13C133.092 1334.47 128.503 1329.88 122.842 1329.88V1329.88C117.181 1329.88 112.592 1334.47 112.592 1340.13L112.592 1364.88C112.592 1374.2 105.032 1381.76 95.7056 1381.76V1381.76V1381.76C86.3794 1381.76 78.8189 1374.2 78.8189 1364.88L78.8189 1352.32V1352.32C68.4255 1352.32 59.9999 1343.9 59.9999 1333.5L60 157.147C60 124.01 86.8629 97.1474 120 97.1474L191.962 97.1474C204.92 97.1474 215.425 86.6427 215.425 73.6846L215.425 67.8377C215.425 61.8522 220.277 57 226.263 57V57C232.248 57 237.1 61.8522 237.1 67.8377L237.1 100.616C237.1 106.091 241.539 110.53 247.014 110.53V110.53C252.489 110.53 256.927 106.091 256.927 100.616L256.927 82.6863C256.927 76.0048 262.344 70.5883 269.025 70.5883V70.5883C275.707 70.5883 281.123 76.0048 281.123 82.6863L281.123 85.0061C281.123 91.7115 286.559 97.1474 293.265 97.1474L314.459 97.1474Z" fill="url(#paint0_linear_548_1639)"/>
</g>
<defs>
<filter id="filter0_di_548_1639" x="0" y="0" width="470" height="1453" filterUnits="userSpaceOnUse" color-interpolation-filters="sRGB">
<feFlood flood-opacity="0" result="BackgroundImageFix"/>
<feColorMatrix in="SourceAlpha" type="matrix" values="0 0 0 0 0 0 0 0 0 0 0 0 0 0 0 0 0 0 127 0" result="hardAlpha"/>
<feOffset dy="3"/>
<feGaussianBlur stdDeviation="30"/>
<feComposite in2="hardAlpha" operator="out"/>
<feColorMatrix type="matrix" values="0 0 0 0 0 0 0 0 0 0 0 0 0 0 0 0 0 0 0.6 0"/>
<feBlend mode="normal" in2="BackgroundImageFix" result="effect1_dropShadow_548_1639"/>
<feBlend mode="normal" in="SourceGraphic" in2="effect1_dropShadow_548_1639" result="shape"/>
<feColorMatrix in="SourceAlpha" type="matrix" values="0 0 0 0 0 0 0 0 0 0 0 0 0 0 0 0 0 0 127 0" result="hardAlpha"/>
<feOffset dy="4"/>
<feGaussianBlur stdDeviation="10"/>
<feComposite in2="hardAlpha" operator="arithmetic" k2="-1" k3="1"/>
<feColorMatrix type="matrix" values="0 0 0 0 1 0 0 0 0 1 0 0 0 0 1 0 0 0 0.22 0"/>
<feBlend mode="normal" in2="shape" result="effect2_innerShadow_548_1639"/>
</filter>
<linearGradient id="paint0_linear_548_1639" x1="400.422" y1="100.236" x2="-102.196" y2="582.202" gradientUnits="userSpaceOnUse">
<stop stop-color="#2D2E44"/>
<stop offset="1" stop-color="#000123"/>
</linearGradient>
</defs>
</svg>
