<svg width="752" height="1640" viewBox="0 0 752 1640" fill="none" xmlns="http://www.w3.org/2000/svg">
<g filter="url(#filter0_di_548_1639)">
<path d="M539.003 102.779C557.479 102.779 572.457 117.757 572.457 136.234V136.234C572.457 147.319 581.444 156.306 592.53 156.306L594.968 156.306C604.822 156.306 612.81 148.318 612.81 138.464V138.464C612.81 118.756 628.787 102.779 648.495 102.779L652.405 102.779C674.273 102.779 692 120.507 692 142.374L692 1502.82C692 1520.58 677.601 1534.98 659.839 1534.98V1534.98L659.839 1558.49C659.839 1568.71 651.552 1577 641.331 1577V1577C631.109 1577 622.823 1568.71 622.823 1558.49L622.823 1498.08C622.823 1487.86 614.537 1479.57 604.315 1479.57V1479.57C594.093 1479.57 585.807 1487.86 585.807 1498.08L585.807 1525.52C585.807 1542.02 572.427 1555.4 555.921 1555.4L547.399 1555.4C535.6 1555.4 526.035 1545.84 526.035 1534.04V1534.04L201.288 1534.04C196.149 1534.04 191.983 1529.87 191.983 1524.73V1524.73C191.983 1515.74 184.692 1508.45 175.698 1508.45L173.475 1508.45C163.253 1508.45 154.967 1516.73 154.967 1526.96L154.967 1537.12C154.967 1553.96 141.315 1567.61 124.474 1567.61V1567.61V1567.61C107.634 1567.61 93.9817 1553.96 93.9817 1537.12L93.9817 1534.04V1534.04C75.2141 1534.04 59.9999 1518.82 59.9999 1500.06L60 162.779C60 129.642 86.8629 102.779 120 102.779L313.899 102.779C328.675 102.779 340.653 90.8012 340.653 76.0252V76.0252C340.653 65.5179 349.171 57 359.678 57L360.223 57C371.031 57 379.793 65.7617 379.793 76.5698L379.793 100.138C379.793 110.025 387.807 118.039 397.694 118.039V118.039C407.58 118.039 415.595 110.025 415.595 100.138L415.595 94.34C415.595 82.2751 425.375 72.4946 437.44 72.4946L442.845 72.4946C451.925 72.4946 459.286 79.8552 459.286 88.9349V88.9349C459.286 96.581 465.484 102.779 473.13 102.779L539.003 102.779Z" fill="url(#paint0_linear_548_1639)"/>
</g>
<defs>
<filter id="filter0_di_548_1639" x="0" y="0" width="752" height="1640" filterUnits="userSpaceOnUse" color-interpolation-filters="sRGB">
<feFlood flood-opacity="0" result="BackgroundImageFix"/>
<feColorMatrix in="SourceAlpha" type="matrix" values="0 0 0 0 0 0 0 0 0 0 0 0 0 0 0 0 0 0 127 0" result="hardAlpha"/>
<feOffset dy="3"/>
<feGaussianBlur stdDeviation="30"/>
<feComposite in2="hardAlpha" operator="out"/>
<feColorMatrix type="matrix" values="0 0 0 0 0 0 0 0 0 0 0 0 0 0 0 0 0 0 0.6 0"/>
<feBlend mode="normal" in2="BackgroundImageFix" result="effect1_dropShadow_548_1639"/>
<feBlend mode="normal" in="SourceGraphic" in2="effect1_dropShadow_548_1639" result="shape"/>
<feColorMatrix in="SourceAlpha" type="matrix" values="0 0 0 0 0 0 0 0 0 0 0 0 0 0 0 0 0 0 127 0" result="hardAlpha"/>
<feOffset dy="4"/>
<feGaussianBlur stdDeviation="10"/>
<feComposite in2="hardAlpha" operator="arithmetic" k2="-1" k3="1"/>
<feColorMatrix type="matrix" values="0 0 0 0 1 0 0 0 0 1 0 0 0 0 1 0 0 0 0.22 0"/>
<feBlend mode="normal" in2="shape" result="effect2_innerShadow_548_1639"/>
</filter>
<linearGradient id="paint0_linear_548_1639" x1="674.706" y1="106.301" x2="147.723" y2="906.524" gradientUnits="userSpaceOnUse">
<stop stop-color="#2D2E44"/>
<stop offset="1" stop-color="#000123"/>
</linearGradient>
</defs>
</svg>
