<svg width="620" height="1453" viewBox="0 0 620 1453" fill="none" xmlns="http://www.w3.org/2000/svg">
<g filter="url(#filter0_di_548_1639)">
<path d="M436.086 97.1474C452.29 97.1474 465.425 110.283 465.425 126.486L465.425 128.126C465.425 136.942 472.731 144.089 481.547 144.089V144.089C490.188 144.089 497.35 137.083 497.35 128.442V128.442C497.35 111.158 511.376 97.1474 528.66 97.1474V97.1474C545.96 97.1474 560 111.172 560 128.472L560 1327.7C560 1341.76 548.608 1353.15 534.556 1353.15V1353.15L534.556 1375.36C534.556 1383.44 528 1390 519.914 1390V1390C511.827 1390 505.271 1383.44 505.271 1375.36L505.271 1319.2C505.271 1311.11 498.716 1304.56 490.629 1304.56V1304.56C482.542 1304.56 475.986 1311.11 475.986 1319.2L475.986 1347.42C475.986 1360.47 465.401 1371.06 452.343 1371.06L447.434 1371.06C437.087 1371.06 428.699 1362.67 428.699 1352.32V1352.32L172.577 1352.32C168.07 1352.32 164.417 1348.67 164.417 1344.16V1344.16C164.417 1336.28 158.023 1329.88 150.136 1329.88L149.774 1329.88C141.688 1329.88 135.132 1336.44 135.132 1344.52L135.132 1357.64C135.132 1370.96 124.331 1381.76 111.008 1381.76V1381.76V1381.76C97.6848 1381.76 86.8842 1370.96 86.8842 1357.64L86.8842 1352.32V1352.32C72.0364 1352.32 59.9999 1340.29 59.9999 1325.44L60 157.147C60 124.01 86.8629 97.1474 120 97.1474L258.573 97.1474C271.531 97.1474 282.036 86.6427 282.036 73.6846L282.036 72.4825C282.036 63.9317 288.967 57 297.518 57V57C306.069 57 313 63.9317 313 72.4825L313 96.3676C313 104.189 319.341 110.53 327.163 110.53V110.53C334.984 110.53 341.325 104.189 341.325 96.3676L341.325 87.8711C341.325 78.3261 349.063 70.5883 358.608 70.5883L361.473 70.5883C369.435 70.5883 375.891 77.0434 375.891 85.0061V85.0061C375.891 91.7115 381.326 97.1474 388.032 97.1474L436.086 97.1474Z" fill="url(#paint0_linear_548_1639)"/>
</g>
<defs>
<filter id="filter0_di_548_1639" x="0" y="0" width="620" height="1453" filterUnits="userSpaceOnUse" color-interpolation-filters="sRGB">
<feFlood flood-opacity="0" result="BackgroundImageFix"/>
<feColorMatrix in="SourceAlpha" type="matrix" values="0 0 0 0 0 0 0 0 0 0 0 0 0 0 0 0 0 0 127 0" result="hardAlpha"/>
<feOffset dy="3"/>
<feGaussianBlur stdDeviation="30"/>
<feComposite in2="hardAlpha" operator="out"/>
<feColorMatrix type="matrix" values="0 0 0 0 0 0 0 0 0 0 0 0 0 0 0 0 0 0 0.6 0"/>
<feBlend mode="normal" in2="BackgroundImageFix" result="effect1_dropShadow_548_1639"/>
<feBlend mode="normal" in="SourceGraphic" in2="effect1_dropShadow_548_1639" result="shape"/>
<feColorMatrix in="SourceAlpha" type="matrix" values="0 0 0 0 0 0 0 0 0 0 0 0 0 0 0 0 0 0 127 0" result="hardAlpha"/>
<feOffset dy="4"/>
<feGaussianBlur stdDeviation="10"/>
<feComposite in2="hardAlpha" operator="arithmetic" k2="-1" k3="1"/>
<feColorMatrix type="matrix" values="0 0 0 0 1 0 0 0 0 1 0 0 0 0 1 0 0 0 0.22 0"/>
<feBlend mode="normal" in2="shape" result="effect2_innerShadow_548_1639"/>
</filter>
<linearGradient id="paint0_linear_548_1639" x1="546.318" y1="100.236" x2="67.1823" y2="756.591" gradientUnits="userSpaceOnUse">
<stop stop-color="#2D2E44"/>
<stop offset="1" stop-color="#000123"/>
</linearGradient>
</defs>
</svg>
