<svg width="52" height="52" viewBox="0 0 52 52" fill="none" xmlns="http://www.w3.org/2000/svg">
<rect x="1" y="1" width="50" height="50" rx="11" fill="url(#paint0_linear_71_1517)" stroke="url(#paint1_linear_71_1517)" stroke-width="2"/>
<g clip-path="url(#clip0_71_1517)">
<path d="M15.5622 12.6869C13.9663 14.281 12.3566 16.4502 11.9997 18.5027C12.0534 22.8054 15.7945 27.4782 20.1197 31.7998C22.2619 33.9398 24.5807 36.091 26.8685 37.6559C29.1564 39.2208 31.4317 40.2689 33.6039 39.9393C35.521 39.7314 37.8843 37.716 39.3176 36.3666C40.2629 35.4176 40.1908 33.6568 39.3176 32.7535L35.6742 29.1135C34.5489 28.1847 33.0894 28.2277 31.91 28.8181L29.4632 30.618C28.8487 30.838 28.1501 30.2854 27.7291 29.987C26.7405 29.28 25.6041 28.1727 24.6909 27.2604C23.7618 26.3323 22.6377 25.265 21.9349 24.319C21.4731 23.7271 21.1843 23.0916 21.3432 22.4789C21.9556 21.6321 22.6056 20.7739 23.1984 19.9268C23.7339 18.7303 23.7164 17.1847 22.8757 16.3138L19.2458 12.7008C17.9979 11.7055 16.771 11.8336 15.5622 12.687L15.5622 12.6869ZM18.0357 13.909L21.652 17.5356C21.9751 18.0542 21.8507 18.5557 21.6788 19.1071L19.9579 21.4578C19.1575 22.8692 19.7326 24.2436 20.5496 25.353C21.4011 26.4997 22.5854 27.5751 23.4805 28.4691C24.3955 29.3834 25.5485 30.5589 26.7206 31.3972C27.8078 32.1671 29.3414 32.7587 30.4848 32.0015C31.2637 31.427 32.0441 30.8549 32.8241 30.2821C33.428 30.0432 33.9178 30.0531 34.4641 30.3359L38.0939 33.9625C38.3572 34.3771 38.307 34.6917 38.121 35.1175C36.608 36.2435 35.057 37.9084 33.3349 38.2471C31.9292 38.4541 29.9602 37.6849 27.8364 36.2324C25.7065 34.7756 23.4505 32.6966 21.3429 30.5911C17.1575 26.4096 13.826 21.7941 13.7338 18.5564C13.9895 17.2503 15.1148 15.6667 16.7452 13.9359C17.2212 13.5774 17.5577 13.6772 18.0358 13.9092L18.0357 13.909Z" fill="#1693D6"/>
</g>
<defs>
<linearGradient id="paint0_linear_71_1517" x1="59.6449" y1="22.4019" x2="2.00867" y2="28.1275" gradientUnits="userSpaceOnUse">
<stop stop-color="#2D2E44"/>
<stop offset="1" stop-color="#000123"/>
</linearGradient>
<linearGradient id="paint1_linear_71_1517" x1="2" y1="26" x2="48.8645" y2="26" gradientUnits="userSpaceOnUse">
<stop stop-color="#FC6717"/>
<stop offset="1" stop-color="#3D1CD9"/>
</linearGradient>
<clipPath id="clip0_71_1517">
<rect width="28" height="28" fill="white" transform="matrix(-1 0 0 1 40 12)"/>
</clipPath>
</defs>
</svg>
