<svg width="52" height="52" viewBox="0 0 52 52" fill="none" xmlns="http://www.w3.org/2000/svg">
<rect x="1" y="1" width="50" height="50" rx="11" fill="url(#paint0_linear_71_1508)" stroke="url(#paint1_linear_71_1508)" stroke-width="2"/>
<g clip-path="url(#clip0_71_1508)">
<path d="M26.0002 25.7018C27.1518 25.7018 28.2562 25.2438 29.0705 24.4284C29.8845 23.613 30.342 22.5072 30.342 21.3542C30.342 20.2012 29.8846 19.0952 29.0705 18.2799C28.2562 17.4645 27.1517 17.0064 26.0002 17.0064C24.8487 17.0064 23.7442 17.4645 22.9299 18.2799C22.1159 19.0952 21.6584 20.2012 21.6584 21.3542C21.6597 22.5069 22.1174 23.612 22.9314 24.4271C23.7455 25.242 24.8491 25.7006 26.0002 25.7018ZM26.0002 18.4428C26.7728 18.4428 27.5137 18.7503 28.0598 19.2974C28.606 19.8445 28.9126 20.5868 28.9122 21.3604C28.9117 22.134 28.6045 22.8756 28.0576 23.4223C27.5108 23.9689 26.7695 24.2757 25.997 24.2748C25.2244 24.2739 24.4837 23.9656 23.9382 23.4179C23.3926 22.8701 23.0869 22.1276 23.0882 21.354C23.0895 20.5815 23.3967 19.8409 23.9427 19.2953C24.4886 18.7494 25.2287 18.4428 26.0002 18.4428H26.0002ZM31.6863 32.7601C34.1074 30.0445 36.4143 26.1791 36.4143 22.4277C36.4143 19.662 35.317 17.0097 33.3642 15.0541C31.4112 13.0985 28.7624 12 26.0005 12C23.2386 12 20.5897 13.0985 18.6368 15.0541C16.6839 17.0097 15.5867 19.6621 15.5867 22.4277C15.5867 26.1216 17.8744 29.9779 20.3958 32.7459C18.2461 33.1563 14.8001 34.1107 14.8001 36.1343C14.8001 38.6684 20.4339 40 26.0001 40C31.5663 40 37.2001 38.6684 37.2001 36.1343C37.2001 34.1107 33.84 33.1562 31.6856 32.7553L31.6863 32.7601ZM26.0002 13.4271C28.3818 13.431 30.6648 14.3799 32.3486 16.0663C34.0327 17.7526 34.9804 20.0385 34.9842 22.4231C34.9842 26.475 31.891 30.7702 29.2366 33.2186C27.5828 34.7458 26.377 35.2661 26.0576 35.2423C24.4418 35.1087 17.0021 28.6323 17.0021 22.4238V22.4236C17.0059 20.0365 17.9555 17.7483 19.6426 16.0618C21.3299 14.3753 23.6163 13.4278 26.0003 13.4278L26.0002 13.4271ZM26.0002 38.5683C19.6807 38.5683 16.2295 36.9599 16.2295 36.1343C16.2295 35.7001 17.4972 34.6119 21.4245 34.0202C21.4839 34.0108 21.5415 33.9931 21.596 33.9678C23.2879 35.5619 24.9323 36.5879 25.9427 36.6689H26.0761C27.401 36.6689 29.2217 35.1751 30.2083 34.2826L30.4896 34.0155H30.5754C34.4978 34.6074 35.7704 35.6954 35.7704 36.1296C35.7704 36.9744 32.3196 38.5685 25.9997 38.5685L26.0002 38.5683Z" fill="#1693D6"/>
</g>
<defs>
<linearGradient id="paint0_linear_71_1508" x1="59.6449" y1="22.4019" x2="2.00867" y2="28.1275" gradientUnits="userSpaceOnUse">
<stop stop-color="#2D2E44"/>
<stop offset="1" stop-color="#000123"/>
</linearGradient>
<linearGradient id="paint1_linear_71_1508" x1="2" y1="26" x2="48.8645" y2="26" gradientUnits="userSpaceOnUse">
<stop stop-color="#FC6717"/>
<stop offset="1" stop-color="#3D1CD9"/>
</linearGradient>
<clipPath id="clip0_71_1508">
<rect width="28" height="28" fill="white" transform="translate(12 12)"/>
</clipPath>
</defs>
</svg>
