<svg width="81" height="81" viewBox="0 0 81 81" fill="none" xmlns="http://www.w3.org/2000/svg">
<g clip-path="url(#clip0_152_89)">
<path d="M40.5 55.5942C36.6922 55.5942 33.2194 54.1929 30.5692 51.8625L33.4784 60.3768L40.5152 81L47.5216 60.3768L50.4308 51.8778C47.7806 54.1929 44.3078 55.5942 40.5 55.5942ZM20.6232 33.4631L0 40.5L20.6232 47.5216L29.1375 50.4308C26.8223 47.7806 25.4058 44.2926 25.4058 40.5C25.4058 36.6922 26.8071 33.2194 29.1375 30.5692L20.6232 33.4631ZM60.3768 33.4631L51.8778 30.5692C54.1929 33.2194 55.6094 36.6922 55.6094 40.5C55.6094 44.3078 54.2082 47.7806 51.8778 50.4308L60.3768 47.5216L81 40.4848L60.3768 33.4631ZM47.5216 20.6232L40.5 0L33.4631 20.6232L30.554 29.1375C33.2042 26.8223 36.6922 25.4058 40.4848 25.4058C44.2926 25.4058 47.7653 26.8071 50.4156 29.1375L47.5216 20.6232Z" fill="#8EDAFA"/>
<path d="M81 40.5C80.8477 40.8808 71.5261 64.8396 40.5 81L47.5216 60.3768H60.3616V47.5216L81 40.5Z" fill="#8EDAFA"/>
<path d="M40.5 80.9849C40.1192 80.8478 16.1604 71.511 0 40.4849L20.6232 47.5217V60.3617H33.4631L40.5 80.9849Z" fill="#8EDAFA"/>
<path d="M40.5 0L33.4631 20.6232H20.6232V33.4631L0 40.5C0 40.5 9.23016 16.2822 40.5 0Z" fill="#8EDAFA"/>
<path d="M60.3768 33.4631V20.6232H47.5216L40.5 0C40.5 0 64.7178 9.23016 81 40.5L60.3768 33.4631Z" fill="#8EDAFA"/>
<path d="M40.5 55.5941C36.6922 55.5941 33.2194 54.1928 30.5692 51.8624L33.4784 60.3767H47.5216L50.4308 51.8777C47.7806 54.1928 44.3078 55.5941 40.5 55.5941ZM20.6232 33.463V47.5215L29.1375 50.4307C26.8223 47.7804 25.4058 44.2925 25.4058 40.4999C25.4058 36.6921 26.8071 33.2193 29.1375 30.5691L20.6232 33.463ZM51.8625 30.5539C54.1777 33.2041 55.5942 36.6768 55.5942 40.4846C55.5942 44.2925 54.1929 47.7652 51.8625 50.4155L60.3616 47.5063V33.4326L51.8625 30.5539ZM47.5216 20.623H33.4631L30.554 29.1373C33.2042 26.8222 36.6922 25.4057 40.4848 25.4057C44.2926 25.4057 47.7653 26.807 50.4156 29.1373L47.5216 20.623Z" fill="#FFFEFD"/>
<path d="M33.4631 60.3769H20.6232V47.5217L29.1375 50.4309C29.5792 50.9335 30.0666 51.4209 30.5692 51.8626L33.4631 60.3769Z" fill="white"/>
<path d="M60.3768 47.5217V60.3617H47.5216L50.4308 51.8626C50.9487 51.4209 51.4208 50.9335 51.8625 50.4309L60.3768 47.5217Z" fill="white"/>
<path d="M60.3768 20.623V33.463L51.8778 30.5691C51.4361 30.0512 50.9487 29.579 50.446 29.1373L47.5216 20.623H60.3768Z" fill="white"/>
<path d="M33.4631 20.623L30.554 29.1373C30.0513 29.579 29.5639 30.0664 29.1222 30.5691L20.6079 33.463V20.623H33.4631Z" fill="white"/>
<path d="M40.5 0V25.4058C36.6922 25.4058 33.2194 26.8071 30.5692 29.1375L33.4784 20.6232L40.5 0Z" fill="#1693D6"/>
<path d="M50.4308 29.1222C47.7806 26.8071 44.3078 25.3906 40.5 25.3906V0L47.5216 20.6232L50.4308 29.1222Z" fill="#2E3F91"/>
<path d="M50.4308 51.8625L47.5216 60.3768L40.4848 81V55.5942C44.3078 55.5942 47.7806 54.1929 50.4308 51.8625Z" fill="#1693D6"/>
<path d="M40.5 55.5942V81L33.4631 60.3768L30.554 51.8625C33.2194 54.1929 36.6922 55.5942 40.5 55.5942Z" fill="#2E3F91"/>
<path d="M81 40.4999H55.5942C55.5942 36.6921 54.1929 33.2193 51.8625 30.5691L60.3616 33.463L81 40.4999Z" fill="#1693D6"/>
<path d="M81 40.5L60.3768 47.5216L51.8778 50.4308C54.1929 47.7806 55.6094 44.2926 55.6094 40.5H81Z" fill="#2E3F91"/>
<path d="M29.1222 50.4308L20.6232 47.5216L0 40.5H25.4058C25.4058 44.2926 26.8071 47.7806 29.1222 50.4308Z" fill="#1693D6"/>
<path d="M29.1222 30.554C26.8071 33.2042 25.3906 36.6769 25.3906 40.4848H0L20.6232 33.4479L29.1222 30.554Z" fill="#2E3F91"/>
<path d="M55.5942 40.5C55.5942 44.3078 54.1929 47.7805 51.8625 50.4308C51.4208 50.9334 50.9334 51.4208 50.4308 51.8625C47.7806 54.1777 44.3078 55.5942 40.5 55.5942C36.6922 55.5942 33.2194 54.1929 30.5692 51.8625C30.0666 51.4208 29.5792 50.9334 29.1375 50.4308C26.8223 47.7805 25.4058 44.2926 25.4058 40.5C25.4058 36.6921 26.8071 33.2194 29.1375 30.5692C29.5792 30.0513 30.0666 29.5791 30.5692 29.1374C33.2194 26.8223 36.7074 25.4058 40.5 25.4058C44.3078 25.4058 47.7806 26.807 50.4308 29.1374C50.9487 29.5791 51.4208 30.0665 51.8625 30.5692C54.1929 33.2194 55.5942 36.6921 55.5942 40.5Z" fill="#FCFDFF"/>
</g>
<defs>
<clipPath id="clip0_152_89">
<rect width="81" height="81" fill="white"/>
</clipPath>
</defs>
</svg>
