<svg width="41" height="40" viewBox="0 0 41 40" fill="none" xmlns="http://www.w3.org/2000/svg">
<circle cx="20.75" cy="20" r="20" fill="url(#paint0_linear_445_10)"/>
<path fill-rule="evenodd" clip-rule="evenodd" d="M20.75 10.9009C18.279 10.9009 17.9689 10.9114 16.998 10.9555C16.0292 10.9996 15.3677 11.1536 14.7888 11.3783C14.1817 11.6069 13.6318 11.9653 13.1774 12.4283C12.7143 12.8829 12.356 13.433 12.1274 14.0404C11.9027 14.6186 11.7494 15.2801 11.7046 16.2489C11.6605 17.2198 11.65 17.5299 11.65 20.0009C11.65 22.4719 11.6605 22.782 11.7046 23.7529C11.7487 24.7217 11.9027 25.3832 12.1274 25.9614C12.3605 26.5599 12.6713 27.0674 13.1774 27.5735C13.6318 28.0365 14.1817 28.3948 14.7888 28.6235C15.3677 28.8475 16.0292 29.0015 16.998 29.0463C17.9689 29.0904 18.279 29.1009 20.75 29.1009C23.221 29.1009 23.5311 29.0904 24.502 29.0463C25.4708 29.0022 26.1323 28.8482 26.7105 28.6235C27.3179 28.3949 27.868 28.0366 28.3226 27.5735C28.7857 27.1189 29.1441 26.5687 29.3726 25.9614C29.5966 25.3832 29.7506 24.7217 29.7954 23.7529C29.8395 22.782 29.85 22.4719 29.85 20.0009C29.85 17.5299 29.8395 17.2198 29.7954 16.2489C29.7513 15.2801 29.5973 14.6186 29.3719 14.0404C29.1436 13.4331 28.7855 12.8829 28.3226 12.4283C27.868 11.9652 27.3179 11.6068 26.7105 11.3783C26.1323 11.1543 25.4708 11.0003 24.502 10.9555C23.5311 10.9114 23.221 10.9009 20.75 10.9009ZM20.75 12.5403C23.1797 12.5403 23.4674 12.5501 24.4271 12.5935C25.314 12.6341 25.7963 12.7825 26.1169 12.9071C26.5418 13.0723 26.8449 13.269 27.1634 13.5875C27.4819 13.906 27.6786 14.2091 27.8438 14.634C27.9684 14.9546 28.1168 15.4362 28.1574 16.3238C28.2008 17.2828 28.2106 17.5712 28.2106 20.0009C28.2106 22.4306 28.2008 22.7183 28.1574 23.678C28.1168 24.5656 27.9684 25.0472 27.8438 25.3678C27.6981 25.7631 27.4656 26.1207 27.1634 26.4143C26.8698 26.7164 26.5122 26.9489 26.1169 27.0947C25.7963 27.2193 25.314 27.3677 24.4271 27.4083C23.4681 27.4517 23.1797 27.4615 20.75 27.4615C18.3203 27.4615 18.0319 27.4517 17.0729 27.4083C16.1853 27.3677 15.7037 27.2193 15.3831 27.0947C14.9878 26.9489 14.6302 26.7164 14.3366 26.4143C14.0345 26.1206 13.802 25.763 13.6562 25.3678C13.5316 25.0472 13.3832 24.5656 13.3426 23.678C13.2992 22.719 13.2894 22.4306 13.2894 20.0009C13.2894 17.5712 13.2992 17.2835 13.3426 16.3238C13.3832 15.4362 13.5316 14.9546 13.6562 14.634C13.8214 14.2091 14.0181 13.906 14.3366 13.5875C14.6302 13.2853 14.9878 13.0528 15.3831 12.9071C15.7037 12.7825 16.1853 12.6341 17.0729 12.5935C18.0319 12.5501 18.3203 12.5403 20.75 12.5403Z" fill="white"/>
<path fill-rule="evenodd" clip-rule="evenodd" d="M20.75 15.1003C19.4505 15.1003 18.2041 15.6165 17.2852 16.5355C16.3663 17.4544 15.85 18.7007 15.85 20.0003C15.85 21.2999 16.3663 22.5462 17.2852 23.4651C18.2041 24.384 19.4505 24.9003 20.75 24.9003C22.0496 24.9003 23.2959 24.384 24.2149 23.4651C25.1338 22.5462 25.65 21.2999 25.65 20.0003C25.65 18.7007 25.1338 17.4544 24.2149 16.5355C23.2959 15.6165 22.0496 15.1003 20.75 15.1003ZM20.75 23.1503C19.9146 23.1503 19.1134 22.8184 18.5227 22.2277C17.9319 21.6369 17.6 20.8357 17.6 20.0003C17.6 19.1649 17.9319 18.3636 18.5227 17.7729C19.1134 17.1822 19.9146 16.8503 20.75 16.8503C21.5855 16.8503 22.3867 17.1822 22.9774 17.7729C23.5682 18.3636 23.9 19.1649 23.9 20.0003C23.9 20.8357 23.5682 21.6369 22.9774 22.2277C22.3867 22.8184 21.5855 23.1503 20.75 23.1503ZM26.84 15.1703C26.84 15.3174 26.8111 15.463 26.7548 15.5989C26.6985 15.7348 26.616 15.8583 26.512 15.9623C26.408 16.0663 26.2845 16.1488 26.1486 16.205C26.0128 16.2613 25.8671 16.2903 25.72 16.2903C25.573 16.2903 25.4273 16.2613 25.2914 16.205C25.1555 16.1488 25.0321 16.0663 24.9281 15.9623C24.8241 15.8583 24.7416 15.7348 24.6853 15.5989C24.629 15.463 24.6 15.3174 24.6 15.1703C24.6 14.8733 24.718 14.5884 24.9281 14.3783C25.1381 14.1683 25.423 14.0503 25.72 14.0503C26.0171 14.0503 26.302 14.1683 26.512 14.3783C26.722 14.5884 26.84 14.8733 26.84 15.1703Z" fill="white"/>
<defs>
<linearGradient id="paint0_linear_445_10" x1="0.75" y1="20" x2="39.8037" y2="20" gradientUnits="userSpaceOnUse">
<stop stop-color="#FC6717"/>
<stop offset="1" stop-color="#3D1CD9"/>
</linearGradient>
</defs>
</svg>
