<svg width="41" height="40" viewBox="0 0 41 40" fill="none" xmlns="http://www.w3.org/2000/svg">
<circle cx="20.75" cy="20" r="20" fill="#167AD6"/>
<path d="M13.0167 8.75C12.4155 8.75 11.839 8.99714 11.4139 9.43706C10.9888 9.87698 10.75 10.4736 10.75 11.0958C10.75 11.7179 10.9888 12.3146 11.4139 12.7545C11.839 13.1944 12.4155 13.4416 13.0167 13.4416C13.6178 13.4416 14.1944 13.1944 14.6194 12.7545C15.0445 12.3146 15.2833 11.7179 15.2833 11.0958C15.2833 10.4736 15.0445 9.87698 14.6194 9.43706C14.1944 8.99714 13.6178 8.75 13.0167 8.75ZM10.8833 15.3734C10.848 15.3734 10.8141 15.3879 10.7891 15.4138C10.764 15.4397 10.75 15.4748 10.75 15.5114V29.862C10.75 29.9382 10.8097 30 10.8833 30H15.15C15.1854 30 15.2193 29.9855 15.2443 29.9596C15.2693 29.9337 15.2833 29.8986 15.2833 29.862V15.5114C15.2833 15.4748 15.2693 15.4397 15.2443 15.4138C15.2193 15.3879 15.1854 15.3734 15.15 15.3734H10.8833ZM17.8167 15.3734C17.7813 15.3734 17.7474 15.3879 17.7224 15.4138C17.6974 15.4397 17.6833 15.4748 17.6833 15.5114V29.862C17.6833 29.9382 17.7431 30 17.8167 30H22.0833C22.1187 30 22.1526 29.9855 22.1776 29.9596C22.2026 29.9337 22.2167 29.8986 22.2167 29.862V22.1347C22.2167 21.5858 22.4274 21.0593 22.8025 20.6712C23.1775 20.283 23.6862 20.0649 24.2167 20.0649C24.7471 20.0649 25.2558 20.283 25.6309 20.6712C26.006 21.0593 26.2167 21.5858 26.2167 22.1347V29.862C26.2167 29.9382 26.2764 30 26.35 30H30.6167C30.652 30 30.6859 29.9855 30.7109 29.9596C30.736 29.9337 30.75 29.8986 30.75 29.862V20.3464C30.75 17.6673 28.4993 15.5721 25.9233 15.8138C25.1263 15.8889 24.3456 16.093 23.6097 16.4188L22.2167 17.0369V15.5114C22.2167 15.4748 22.2026 15.4397 22.1776 15.4138C22.1526 15.3879 22.1187 15.3734 22.0833 15.3734H17.8167Z" fill="white"/>
</svg>
