<svg width="233" height="45" viewBox="0 0 233 45" fill="none" xmlns="http://www.w3.org/2000/svg">
<g clip-path="url(#clip0_5_12)">
<path d="M57.0298 15.0704V14.1702C57.5969 14.2197 58.1641 14.2493 58.7212 14.279C59.2784 14.3087 59.8157 14.3186 60.3132 14.3186C60.6117 14.3186 60.9798 14.2988 61.4176 14.2691C62.4424 14.19 63.1488 14.1504 63.517 14.1504C63.6165 14.1504 63.7657 14.1504 63.9548 14.1504C65.1288 14.1504 66.1437 14.4868 67.0093 15.1495C67.9446 15.8816 68.4222 16.8214 68.4222 17.9689C68.4222 18.6119 68.263 19.2351 67.9545 19.8187C67.6362 20.4123 67.268 20.8179 66.8501 21.0355L66.4621 21.2333C66.3029 21.3224 66.2332 21.4312 66.2432 21.5697C66.2432 21.6983 66.3228 21.7972 66.4919 21.8368L66.9994 21.9852C67.8948 22.2523 68.5913 22.7765 69.0789 23.5679C69.5365 24.3 69.7654 25.1804 69.7654 26.1894C69.7654 27.7029 69.3574 28.9098 68.5416 29.81C67.6262 30.819 66.3128 31.3334 64.5916 31.3334C63.9946 31.3334 62.9598 31.2048 61.4673 30.9476C60.6813 30.819 60.0246 30.7498 59.4874 30.7498C58.9799 30.7498 58.5222 30.7696 58.1044 30.8091C57.6865 30.8487 57.3084 30.8883 56.99 30.9377V29.9485H58.4526C58.8207 29.9485 59.1192 29.8496 59.358 29.6517C59.5272 29.5132 59.6466 29.3649 59.7063 29.1868C59.7759 29.0087 59.8058 28.801 59.8058 28.5537V19.1757C59.8058 18.2755 59.756 17.5237 59.6565 16.9203C59.5272 16.1388 59.3182 15.6244 59.0396 15.3672C58.8108 15.1693 58.5322 15.0704 58.184 15.0704H57.0298ZM61.6365 21.4807H63.2284C64.0742 21.4807 64.7905 21.1542 65.3776 20.4914C65.9547 19.8385 66.2531 19.0669 66.2531 18.1865C66.2531 17.1775 65.895 16.4158 65.1786 15.9212C64.5717 15.4958 63.7757 15.288 62.7807 15.288H61.6365V21.4807ZM61.6365 28.4548C61.6365 29.0582 61.8952 29.5132 62.4026 29.8199C62.9101 30.1365 63.5667 30.2848 64.3627 30.2848C65.3676 30.2848 66.1736 29.9881 66.7805 29.4044C67.4372 28.7713 67.7754 27.8711 67.7754 26.7038C67.7754 25.3881 67.3476 24.3395 66.5019 23.5482C65.696 22.8062 64.6811 22.4303 63.4473 22.4303H61.6365V28.4548Z" fill="white"/>
<path d="M80.8892 23.3404C80.8892 24.112 80.8594 24.9331 80.7997 25.8234C80.74 26.7038 80.6703 27.6337 80.6106 28.5834C80.6106 28.8999 80.6405 29.1176 80.6902 29.2462C80.74 29.3748 80.8295 29.4143 80.9688 29.355C81.0782 29.3253 81.2275 29.2956 81.4066 29.2758C81.5857 29.256 81.7349 29.2264 81.8444 29.1967L82.3817 29.0087L82.7299 29.7111C81.9339 29.8595 81.1678 30.0672 80.4315 30.364C80.1728 30.453 79.934 30.5618 79.7251 30.6805C79.158 30.9872 78.8197 31.1554 78.7301 31.1752C78.6207 31.2048 78.561 31.1257 78.561 30.9377C78.561 30.819 78.6306 30.3244 78.76 29.4539C78.8893 28.5834 78.9789 27.9898 79.0087 27.6535C79.0386 27.3171 79.0684 26.9511 79.0784 26.5554C79.0883 26.1597 79.0983 25.9421 79.0983 25.9223C79.0983 25.7443 79.0983 25.5563 79.0983 25.3585C79.0983 25.1606 79.0983 24.9628 79.0983 24.7451C79.0983 24.666 79.0983 24.6066 79.0983 24.5572L76.7402 28.4152C76.2725 29.1967 75.6656 29.8397 74.9393 30.3541C74.213 30.8685 73.5165 31.1257 72.8499 31.1257C72.2529 31.1257 71.825 30.7993 71.5564 30.1365C71.3574 29.632 71.2579 28.9692 71.2579 28.1382C71.2579 26.6247 71.7156 24.9924 72.621 23.2316C73.4269 21.6587 74.412 20.3035 75.586 19.156C76.7601 18.0084 77.7252 17.4347 78.5013 17.4347C78.6804 17.4347 78.8595 17.4545 79.0286 17.494C79.1978 17.5336 79.3768 17.5732 79.5559 17.6226L81.4862 17.4347C81.317 18.5723 81.1777 19.6803 81.0683 20.7684C80.9489 21.8665 80.8892 22.7271 80.8892 23.3404ZM78.7301 18.4338C78.6505 18.3943 78.551 18.3646 78.4316 18.3646C77.8844 18.3646 77.1879 18.8097 76.3322 19.6901C75.4766 20.5706 74.7602 21.6488 74.1632 22.9052C73.4767 24.3396 73.1384 25.675 73.1384 26.8918C73.1384 27.5249 73.1881 27.9799 73.2876 28.247C73.4667 28.712 73.805 28.9494 74.3125 28.9494C74.9194 28.9494 75.5562 28.524 76.2427 27.6832C76.8397 26.9511 77.4068 26.0015 77.954 24.8441C78.4018 23.8845 78.7898 22.8755 79.1281 21.8269C79.1978 21.6389 79.2575 21.362 79.3271 20.9959C79.3967 20.6299 79.4266 20.3035 79.4266 20.0067C79.4266 19.6407 79.3669 19.3142 79.2575 19.0373C79.148 18.7603 78.9689 18.5624 78.7301 18.4338Z" fill="white"/>
<path d="M93.8835 30.5223C93.2666 30.7102 92.6597 30.9872 92.0527 31.3532L91.6548 31.007C91.8637 30.0276 91.9831 29.5231 91.9931 29.4836C92.0627 29.1274 92.1224 28.7713 92.1821 28.4152C92.3313 27.4556 92.4408 26.3378 92.5204 25.0716C92.6 23.7955 92.6497 22.7172 92.6696 21.8368C92.6895 20.9564 92.7094 20.2639 92.7194 19.7693C92.6597 19.8286 92.401 20.1254 91.9334 20.6695C91.4259 21.263 90.8986 21.906 90.3514 22.6084C89.6648 23.4789 89.1375 24.1912 88.7694 24.7451C88.1525 25.6651 87.6649 26.6445 87.2968 27.6634C87.0481 28.346 86.8491 29.0978 86.6899 29.9287C86.6302 30.2651 86.5804 30.5915 86.5406 30.9279H84.8492L85.486 19.2945L83.3169 19.7594V18.7108C83.7846 18.7108 84.1427 18.7009 84.3915 18.6712C84.6402 18.6416 84.9586 18.5822 85.3666 18.4833C86.2322 18.2755 87.058 17.8996 87.844 17.3753L86.9088 26.14C87.3067 25.398 87.8142 24.5671 88.4112 23.6471C89.0081 22.7271 89.5255 22.005 89.9633 21.4708C90.4807 20.8476 90.9981 20.2144 91.5254 19.5813C92.0527 18.9482 92.6298 18.325 93.2467 17.7315H94.769L94.1322 29.4143L96.1321 29.1176V30.1266C95.7142 30.1266 95.366 30.1563 95.0874 30.2057C94.7889 30.2651 94.3909 30.364 93.8835 30.5223Z" fill="white"/>
<path d="M97.9827 12.7655L97.6345 12.0631L100.221 10.7771L101.216 11.7169C102.301 12.7259 103.137 13.6162 103.714 14.3878C104.37 15.2683 104.987 16.3465 105.564 17.6226C105.833 18.2063 106.052 18.8592 106.231 19.5912C106.45 20.4815 106.569 21.3224 106.569 22.1138V24.0922C106.569 24.5868 106.52 25.1111 106.42 25.675C106.291 26.2883 106.191 26.7236 106.132 26.9808C106.072 27.238 105.903 27.6139 105.614 28.0986C105.266 28.6922 104.938 29.0681 104.619 29.2363L101.803 30.819C101.614 30.9278 101.366 31.0169 101.047 31.0861C100.729 31.1554 100.401 31.185 100.052 31.185C99.8831 31.185 99.7637 31.1752 99.6841 31.1653C98.7887 31.0564 98.122 30.4233 97.6843 29.2758C97.336 28.3657 97.1669 27.2182 97.1669 25.8333C97.1669 24.0823 97.5549 22.4006 98.321 20.7684C99.0971 19.1362 100.003 18.137 101.037 17.771L101.863 17.4841C101.963 17.4545 102.062 17.4347 102.162 17.4347C102.331 17.4347 102.44 17.4742 102.48 17.5633C102.52 17.6424 102.55 17.7117 102.55 17.771C102.55 17.9689 102.45 18.1074 102.261 18.1865L101.326 18.5822C100.779 18.8196 100.291 19.6407 99.8533 21.0652C99.4254 22.4897 99.2066 23.9043 99.2066 25.309C99.2066 27.0303 99.4155 28.2569 99.8433 28.979C100.211 29.6023 100.749 29.9089 101.435 29.9089C102.579 29.9089 103.425 29.2758 103.982 28.0096C104.44 26.961 104.669 25.5563 104.669 23.7856C104.669 21.8269 104.281 19.9276 103.495 18.0777C102.808 16.4751 101.953 15.1397 100.928 14.0713C99.9627 13.082 99.1568 12.6171 98.4902 12.6864L97.9827 12.7655Z" fill="white"/>
<path d="M107.942 28.5339C107.942 27.6238 107.972 26.7137 108.032 25.8135C108.092 24.9133 108.161 23.9636 108.231 22.9744C108.301 21.9852 108.34 21.1146 108.34 20.3529C108.34 18.5822 108.46 16.9104 108.689 15.3276C108.878 14.0614 109.176 12.627 109.574 11.0244C109.972 9.42188 110.39 7.81932 110.798 6.21676L111.096 5H114.081V5.82106C113.644 6.20687 113.216 6.60256 112.788 6.98836C112.28 7.849 111.873 9.06575 111.564 10.6386C111.246 12.2115 111.027 13.3788 110.897 14.1405C110.659 15.4364 110.499 16.5345 110.41 17.4347C110.32 18.3448 110.281 19.4527 110.281 20.7783L109.982 25.2694C110.32 24.6957 110.589 24.2307 110.808 23.8845C111.445 22.826 112.002 21.9654 112.46 21.2927C112.927 20.62 113.524 19.888 114.26 19.0966C114.629 18.7108 115.066 18.2755 115.574 17.7908L118.39 17.6226V21.6389C118.39 22.5589 118.29 23.4097 118.091 24.1714C117.962 24.6858 117.663 25.4969 117.215 26.6049C116.847 27.4952 116.28 28.4646 115.504 29.5033C114.907 30.2947 114.241 31.096 113.494 31.9072C113.066 32.3424 112.639 32.7777 112.221 33.2031L110.29 35.2409L109.514 34.311C110.629 33.5295 111.534 32.7579 112.231 31.9863C112.917 31.2147 113.584 30.2156 114.221 28.9988C114.798 27.8909 115.265 26.6346 115.624 25.2397C115.972 23.8449 116.151 22.6183 116.151 21.5499C116.151 20.6398 116.012 19.9671 115.753 19.5516C115.703 19.4725 115.633 19.4329 115.534 19.4329C115.146 19.4329 114.499 19.9968 113.604 21.1146C112.678 22.2918 111.843 23.6075 111.106 25.0518C110.251 26.7335 109.733 28.2272 109.524 29.5429L109.355 30.7102L107.714 31.2444L107.942 28.5339Z" fill="white"/>
<path d="M129.324 23.3404C129.324 24.112 129.294 24.9331 129.235 25.8234C129.175 26.7038 129.105 27.6337 129.046 28.5834C129.046 28.8999 129.076 29.1176 129.125 29.2462C129.175 29.3748 129.265 29.4143 129.404 29.355C129.513 29.3253 129.663 29.2956 129.842 29.2758C130.021 29.256 130.17 29.2264 130.279 29.1967L130.817 29.0087L131.165 29.7111C130.369 29.8595 129.603 30.0672 128.867 30.364C128.608 30.453 128.369 30.5618 128.16 30.6805C127.593 30.9872 127.255 31.1554 127.165 31.1752C127.056 31.2048 126.996 31.1257 126.996 30.9377C126.996 30.819 127.066 30.3244 127.195 29.4539C127.324 28.5834 127.414 27.9898 127.444 27.6535C127.474 27.3171 127.503 26.9511 127.513 26.5554C127.523 26.1597 127.533 25.9421 127.533 25.9223C127.533 25.7443 127.533 25.5563 127.533 25.3585C127.533 25.1606 127.533 24.9628 127.533 24.7451C127.533 24.666 127.533 24.6066 127.533 24.5572L125.175 28.4152C124.708 29.1967 124.101 29.8397 123.374 30.3541C122.648 30.8685 121.952 31.1257 121.285 31.1257C120.688 31.1257 120.26 30.7993 119.991 30.1365C119.792 29.632 119.693 28.9692 119.693 28.1382C119.693 26.6247 120.151 24.9924 121.056 23.2316C121.862 21.6587 122.847 20.3035 124.021 19.156C125.195 18.0084 126.16 17.4347 126.936 17.4347C127.115 17.4347 127.295 17.4545 127.464 17.494C127.633 17.5336 127.812 17.5732 127.991 17.6226L129.921 17.4347C129.752 18.5723 129.613 19.6803 129.503 20.7684C129.384 21.8665 129.324 22.7271 129.324 23.3404ZM127.165 18.4338C127.086 18.3943 126.986 18.3646 126.867 18.3646C126.319 18.3646 125.623 18.8097 124.767 19.6901C123.912 20.5706 123.195 21.6488 122.598 22.9052C121.912 24.3396 121.573 25.675 121.573 26.8918C121.573 27.5249 121.623 27.9799 121.723 28.247C121.902 28.712 122.24 28.9494 122.748 28.9494C123.354 28.9494 123.991 28.524 124.678 27.6832C125.275 26.9511 125.842 26.0015 126.389 24.8441C126.837 23.8845 127.225 22.8755 127.563 21.8269C127.633 21.6389 127.693 21.362 127.762 20.9959C127.832 20.6299 127.862 20.3035 127.862 20.0067C127.862 19.6407 127.802 19.3142 127.693 19.0373C127.583 18.7603 127.404 18.5624 127.165 18.4338Z" fill="white"/>
<path d="M142.319 30.5223C141.702 30.7102 141.095 30.9872 140.488 31.3532L140.09 31.007C140.299 30.0276 140.418 29.5231 140.428 29.4836C140.498 29.1274 140.557 28.7713 140.617 28.4152C140.766 27.4556 140.876 26.3378 140.955 25.0716C141.035 23.7955 141.085 22.7172 141.105 21.8368C141.125 20.9564 141.144 20.2639 141.154 19.7693C141.095 19.8286 140.836 20.1254 140.368 20.6695C139.861 21.263 139.334 21.906 138.786 22.6084C138.1 23.4789 137.573 24.1912 137.204 24.7451C136.588 25.6651 136.1 26.6445 135.732 27.6634C135.483 28.346 135.284 29.0978 135.125 29.9287C135.065 30.2651 135.015 30.5915 134.976 30.9279H133.284L133.921 19.2945L131.752 19.7594V18.7108C132.22 18.7108 132.578 18.7009 132.827 18.6712C133.075 18.6416 133.394 18.5822 133.802 18.4833C134.667 18.2755 135.493 17.8996 136.279 17.3753L135.344 26.14C135.742 25.398 136.249 24.5671 136.846 23.6471C137.443 22.7271 137.961 22.005 138.398 21.4708C138.916 20.8476 139.433 20.2144 139.96 19.5813C140.488 18.9482 141.065 18.325 141.682 17.7315H143.204L142.567 29.4143L144.567 29.1176V30.1266C144.149 30.1266 143.801 30.1563 143.522 30.2057C143.224 30.2651 142.826 30.364 142.319 30.5223Z" fill="white"/>
<path d="M151.96 15.1199V14.1108C152.756 14.1108 153.492 14.1306 154.159 14.1603C156.159 14.2691 157.343 14.3186 157.701 14.3186C158.347 14.3186 159.114 14.2988 159.979 14.2493C161.949 14.1504 163.213 14.101 163.76 14.101L163.959 17.9194L162.954 17.9491L162.875 16.9499C162.875 16.7521 162.835 16.5641 162.755 16.4059C162.676 16.2476 162.566 16.0794 162.417 15.9113C162.228 15.6936 161.999 15.5452 161.73 15.4661C161.462 15.3968 161.133 15.3573 160.755 15.3573H157.144V21.817L161.243 21.7181C161.382 21.7181 161.472 21.7181 161.531 21.7181C161.71 21.7181 161.85 21.7082 161.959 21.6785C162.069 21.6488 162.178 21.5895 162.288 21.4905C162.526 21.2729 162.636 20.986 162.636 20.6398V19.8682H163.541C163.541 20.2837 163.531 20.7486 163.511 21.2828C163.491 21.817 163.482 22.1138 163.482 22.183C163.482 22.5787 163.491 22.9249 163.501 23.2118C163.511 23.4987 163.561 24.023 163.631 24.7847H162.626V23.8152C162.626 23.5383 162.496 23.2909 162.238 23.0634C162.118 22.9546 161.989 22.8854 161.86 22.8557C161.73 22.826 161.551 22.8161 161.312 22.8161L157.134 22.7172V27.1786C157.134 27.5447 157.163 27.9008 157.213 28.2371C157.273 28.5735 157.353 28.8405 157.452 29.0384C157.561 29.2362 157.741 29.3846 158.009 29.4934C158.268 29.6023 158.566 29.6616 158.895 29.6616H161.73C162.039 29.6616 162.317 29.6122 162.566 29.5231C162.805 29.4341 163.064 29.2758 163.332 29.0681C163.671 28.7911 163.909 28.2866 164.069 27.5447C164.108 27.3072 164.158 26.9511 164.198 26.506H165.203L164.695 30.9476C163.651 30.9476 162.695 30.9278 161.82 30.8883C159.193 30.7696 157.641 30.7102 157.183 30.7102C156.517 30.7102 155.432 30.7597 153.94 30.8586C153.114 30.9179 152.427 30.9377 151.89 30.9377V29.8891H153.532C153.791 29.8891 154.009 29.8595 154.198 29.81C154.388 29.7605 154.567 29.6616 154.746 29.5132C154.984 29.3154 155.134 29.0483 155.203 28.7317C155.233 28.5636 155.253 28.2371 155.253 27.7623V19.3934C155.253 19.1263 155.253 18.9185 155.253 18.7701C155.253 17.8798 155.213 17.1874 155.134 16.6927C155.024 15.9904 154.805 15.5254 154.497 15.3078C154.368 15.2089 154.179 15.1396 153.94 15.1199C153.701 15.0902 153.442 15.0803 153.154 15.0803H151.96V15.1199Z" fill="white"/>
<path d="M177.65 28.1382C177.879 28.435 178.058 28.6427 178.187 28.7515C178.396 28.9197 178.655 28.9988 178.943 28.9988C179.212 28.9988 179.431 28.9395 179.6 28.8307L180.595 28.1283L181.063 28.9494C180.615 29.1373 180.257 29.3055 179.978 29.4341C179.7 29.5726 179.361 29.7606 178.943 30.0079C178.625 30.1859 178.336 30.3739 178.058 30.5618C177.819 30.7201 177.53 30.9279 177.182 31.1851L173.769 25.8432L172.128 28.2965C171.6 29.078 170.984 29.7408 170.277 30.2849C169.491 30.8883 168.775 31.1851 168.128 31.1851C167.81 31.1851 167.531 31.1059 167.262 30.9377C167.004 30.7696 166.805 30.5322 166.695 30.2156C166.586 29.899 166.516 29.5231 166.516 29.0879C166.516 28.6427 166.566 28.1976 166.655 27.7425C166.755 27.2875 166.884 26.8027 167.063 26.2686L167.531 24.9133L168.307 25.2101L167.77 26.8918C167.591 27.4457 167.501 28.0096 167.501 28.5636C167.501 28.8604 167.541 29.1274 167.611 29.3451C167.68 29.5726 167.79 29.721 167.929 29.8001C168.068 29.8793 168.208 29.9188 168.337 29.9188C168.626 29.9188 168.944 29.7902 169.292 29.5231C169.64 29.2659 169.939 28.9494 170.178 28.5933L172.934 24.6759L169.839 20.1749C169.72 19.9968 169.63 19.8781 169.571 19.8089C169.402 19.6209 169.193 19.5121 168.944 19.4725C168.785 19.4527 168.626 19.4824 168.456 19.5517C168.267 19.6704 168.118 19.7594 167.999 19.8187L166.944 20.4024L166.506 19.5813C167.262 19.2846 168.068 18.8889 168.924 18.414C169.521 18.0777 170.118 17.6919 170.705 17.2467L173.949 22.8557L175.292 20.7486C176.008 19.6407 176.695 18.7998 177.361 18.2261C178.068 17.6226 178.774 17.3259 179.481 17.3259C179.809 17.3259 180.127 17.3852 180.446 17.5138C180.764 17.6325 180.993 17.8502 181.112 18.1469C181.242 18.4437 181.301 18.8097 181.301 19.245C181.301 19.8781 181.162 20.6497 180.884 21.5697C180.794 21.8665 180.655 22.2622 180.466 22.737L179.759 22.3215L179.948 21.5004C180.038 21.0751 180.097 20.7684 180.127 20.5805C180.157 20.3925 180.167 20.1848 180.167 19.9473C180.167 19.6407 180.127 19.3835 180.058 19.1856C179.988 18.9878 179.849 18.8295 179.65 18.691C179.55 18.6218 179.431 18.5921 179.302 18.5921C178.844 18.5921 178.237 19.0274 177.491 19.8979C177.113 20.343 176.735 20.8377 176.366 21.3817L174.675 23.9537L177.65 28.1382Z" fill="white"/>
<path d="M184.784 19.1856L182.436 19.7198V18.4833C182.953 18.4833 183.301 18.4734 183.48 18.4536C183.928 18.3646 184.366 18.2854 184.784 18.2063C185.202 18.1271 185.689 17.9985 186.236 17.8106C186.495 17.7117 186.754 17.6127 187.022 17.5138C186.973 17.86 186.943 18.137 186.903 18.3448C186.664 19.8583 186.525 20.8278 186.485 21.2531C186.406 22.0742 186.366 22.8854 186.366 23.6767C186.366 24.1021 186.376 24.4582 186.396 24.755C186.416 25.0518 186.426 25.2892 186.435 25.4673C186.336 25.4079 186.585 24.7056 187.172 23.3503C187.838 21.817 188.585 20.531 189.4 19.4923C190.495 18.0975 191.579 17.405 192.654 17.405C193.211 17.405 193.589 17.6325 193.798 18.0678C193.928 18.3646 193.997 18.8295 193.997 19.4329V22.5391C193.997 23.8845 193.778 25.2101 193.35 26.5159C192.923 27.8216 192.415 28.7515 191.828 29.3154C191.191 29.9287 190.634 30.364 190.147 30.6212C189.669 30.8784 189.022 31.1059 188.236 31.2939L188.117 30.641C188.336 30.6113 188.565 30.5717 188.784 30.542C189.132 30.4629 189.45 30.3046 189.759 30.0573C190.445 29.533 190.973 28.5735 191.351 27.1687C191.699 25.9025 191.868 24.4879 191.868 22.9249V19.8385C191.868 19.5912 191.828 19.3835 191.749 19.2252C191.669 19.057 191.54 18.9482 191.351 18.9086C191.072 18.8394 190.614 19.2351 189.978 20.0759C189.281 20.986 188.644 22.0742 188.047 23.3305C187.341 24.8144 186.843 26.2587 186.535 27.6634C186.236 29.0681 185.978 30.3739 185.759 31.5609C185.48 33.1734 185.261 34.7067 185.122 36.151L184.883 38.4856L183.411 39C183.56 38.2581 183.659 37.714 183.709 37.3776C183.819 36.7643 183.878 36.2104 183.878 35.7256C184.048 33.8461 184.177 32.1347 184.276 30.6113C184.376 29.078 184.416 27.4754 184.416 25.7937L184.784 19.1856Z" fill="white"/>
<path d="M195.291 26.7335C195.291 25.0122 195.44 23.5581 195.728 22.3809C196.107 20.8574 196.733 19.6901 197.609 18.879C198.654 17.9194 200.047 17.4446 201.808 17.4446C202.803 17.4446 203.569 18.0579 204.086 19.2944C204.524 20.3331 204.743 21.5598 204.743 23.0041C204.743 25.2892 204.355 27.1391 203.569 28.5636C202.594 30.3343 201.091 31.2147 199.072 31.2147C198.962 31.2147 198.843 31.2048 198.713 31.1949C198.584 31.185 198.485 31.1752 198.405 31.1752C197.32 31.0861 196.554 30.7795 196.126 30.2453C195.569 29.5726 195.291 28.4053 195.291 26.7335ZM197.34 25.4475C197.34 26.9017 197.46 27.9799 197.689 28.6724C198.057 29.7507 198.743 30.2947 199.758 30.2947C200.892 30.2947 201.698 29.5726 202.196 28.1283C202.564 27.05 202.753 25.6157 202.753 23.8251C202.753 22.3908 202.564 21.2037 202.196 20.2738C201.718 19.057 200.982 18.4536 199.997 18.4536C199.091 18.4536 198.395 19.3736 197.897 21.2037C197.529 22.5589 197.34 23.9834 197.34 25.4475Z" fill="white"/>
<path d="M215.22 20.0759C215.1 20.0463 214.971 20.0265 214.832 20.0265C214.434 20.0265 214.036 20.1946 213.638 20.5409C213.031 21.0652 212.434 21.9654 211.837 23.2415C211.389 24.2208 210.961 25.3585 210.544 26.6642C210.225 27.6634 209.957 28.6427 209.738 29.6023C209.559 30.3739 209.469 30.819 209.469 30.9377H208.006L208.673 19.4033L205.907 19.9078V18.8592C206.016 18.8592 206.116 18.8592 206.205 18.8592C206.723 18.8295 207.419 18.7009 208.285 18.4932C208.842 18.3646 209.479 18.1568 210.205 17.8897C210.563 17.7315 210.752 17.6523 210.762 17.6523L210.394 24.577L211.081 22.9249C211.479 21.9357 211.728 21.3422 211.797 21.1542C212.056 20.5409 212.315 20.0067 212.573 19.5319C212.832 19.0669 213.081 18.7108 213.31 18.4635C213.588 18.1865 213.857 17.9887 214.096 17.8897C214.344 17.7809 214.573 17.7315 214.782 17.7315C215.051 17.7809 215.2 17.8007 215.22 17.8007V20.0759Z" fill="white"/>
<path d="M218.245 18.8394L216.484 18.9581V17.7413L218.364 17.7908L218.553 15.1001L220.672 14.6351L220.324 17.7908L223.259 17.7413L223.19 18.9086L220.085 18.8394C220.065 18.8987 220.026 19.5318 219.966 20.7585C219.847 23.3998 219.777 25.3683 219.777 26.6642C219.777 27.9206 219.827 28.7119 219.926 29.0384C220.105 29.6319 220.553 29.9188 221.269 29.9188C221.787 29.9188 222.254 29.6814 222.682 29.2165C223.17 28.6724 223.418 27.97 223.418 27.1094V26.773H224.195V27.1687C224.195 28.0393 224.005 28.7812 223.617 29.3846C223.229 29.9979 222.682 30.4431 221.966 30.7399C221.687 30.8586 221.419 30.9476 221.18 30.9872C220.931 31.0268 220.672 31.0564 220.394 31.0564C219.876 31.0564 219.399 30.9872 218.971 30.8388C218.434 30.6607 218.066 30.4728 217.867 30.2749V24.2703C217.867 23.3503 217.906 22.4303 217.986 21.5301C218.075 20.432 218.175 19.5318 218.245 18.8394Z" fill="white"/>
<path d="M226.254 27.7029C226.254 28.5042 226.493 29.1472 226.961 29.6419C227.428 30.1365 228.025 30.3739 228.742 30.3739C229.468 30.3739 230.085 30.1563 230.582 29.7309C231.08 29.3055 231.328 28.712 231.328 27.97C231.328 27.4062 231.169 26.9017 230.861 26.4862C230.622 26.1597 230.224 25.8036 229.657 25.398L228.184 24.3297C227.637 23.9241 227.229 23.4591 226.951 22.9348C226.672 22.4105 226.543 21.8269 226.543 21.1839C226.543 20.0957 226.841 19.2153 227.428 18.5426C228.075 17.8106 229 17.4347 230.194 17.4347C230.214 17.4347 230.254 17.4347 230.314 17.4347C230.642 17.4347 230.98 17.4743 231.338 17.5633C231.527 17.6029 231.716 17.6622 231.906 17.7414V20.6398H231.129L231.1 19.9078C231.1 19.4527 230.99 19.0471 230.761 18.7009C230.532 18.3547 230.224 18.1766 229.826 18.1766C229.378 18.1766 228.99 18.3943 228.672 18.8196C228.344 19.245 228.184 19.6803 228.184 20.1155C228.184 20.6497 228.334 21.1542 228.642 21.6192C228.941 22.0841 229.378 22.5194 229.935 22.9249L231.179 23.7955C231.786 24.211 232.234 24.6462 232.522 25.1013C232.861 25.6256 233.03 26.2191 233.03 26.872C233.03 27.8316 232.662 28.7416 231.925 29.6122C231.05 30.641 229.965 31.1455 228.672 31.1455C227.816 31.1455 226.99 30.9872 226.175 30.6608C225.906 30.5618 225.587 30.4036 225.219 30.176L225.587 26.041L226.423 26.14L226.254 27.7029Z" fill="white"/>
</g>
<g clip-path="url(#clip1_5_12)">
<path d="M22.5 30.8857C20.3845 30.8857 18.4552 30.1072 16.9829 28.8125L18.5991 33.5427L22.5085 45L26.4009 33.5427L28.0171 28.821C26.5448 30.1072 24.6155 30.8857 22.5 30.8857ZM11.4573 18.5906L0 22.5L11.4573 26.4009L16.1875 28.0171C14.9013 26.5448 14.1143 24.607 14.1143 22.5C14.1143 20.3845 14.8928 18.4552 16.1875 16.9829L11.4573 18.5906ZM33.5427 18.5906L28.821 16.9829C30.1072 18.4552 30.8941 20.3845 30.8941 22.5C30.8941 24.6155 30.1156 26.5448 28.821 28.0171L33.5427 26.4009L45 22.4915L33.5427 18.5906ZM26.4009 11.4573L22.5 0L18.5906 11.4573L16.9744 16.1875C18.4468 14.9013 20.3845 14.1143 22.4915 14.1143C24.607 14.1143 26.5363 14.8928 28.0086 16.1875L26.4009 11.4573Z" fill="#8EDAFA"/>
<path d="M45 22.5C44.9154 22.7115 39.7367 36.022 22.5 45L26.4009 33.5427H33.5342V26.4009L45 22.5Z" fill="#8EDAFA"/>
<path d="M22.5 44.9915C22.2885 44.9154 8.978 39.7283 0 22.4915L11.4573 26.4009V33.5342H18.5906L22.5 44.9915Z" fill="#8EDAFA"/>
<path d="M22.5 0L18.5906 11.4573H11.4573V18.5906L0 22.5C0 22.5 5.12787 9.04569 22.5 0Z" fill="#8EDAFA"/>
<path d="M33.5427 18.5906V11.4573H26.4009L22.5 0C22.5 0 35.9543 5.12787 45 22.5L33.5427 18.5906Z" fill="#8EDAFA"/>
<path d="M22.5 30.8857C20.3846 30.8857 18.4553 30.1072 16.9829 28.8125L18.5991 33.5427H26.4009L28.0171 28.821C26.5448 30.1072 24.6155 30.8857 22.5 30.8857ZM11.4573 18.5906V26.4009L16.1875 28.0171C14.9013 26.5447 14.1144 24.607 14.1144 22.5C14.1144 20.3845 14.8928 18.4552 16.1875 16.9829L11.4573 18.5906ZM28.8125 16.9744C30.0987 18.4468 30.8857 20.3761 30.8857 22.4915C30.8857 24.607 30.1072 26.5363 28.8125 28.0086L33.5342 26.3924V18.5737L28.8125 16.9744ZM26.4009 11.4573H18.5907L16.9744 16.1875C18.4468 14.9013 20.3846 14.1143 22.4916 14.1143C24.607 14.1143 26.5363 14.8928 28.0087 16.1875L26.4009 11.4573Z" fill="#FFFEFD"/>
<path d="M18.5907 33.5427H11.4573V26.4009L16.1875 28.0171C16.4329 28.2964 16.7037 28.5671 16.9829 28.8125L18.5907 33.5427Z" fill="white"/>
<path d="M33.5427 26.4009V33.5342H26.4009L28.0171 28.8125C28.3048 28.5671 28.5671 28.2964 28.8125 28.0171L33.5427 26.4009Z" fill="white"/>
<path d="M33.5427 11.4573V18.5906L28.821 16.9829C28.5756 16.6952 28.3048 16.4329 28.0256 16.1875L26.4009 11.4573H33.5427Z" fill="white"/>
<path d="M18.5906 11.4573L16.9744 16.1875C16.6952 16.4329 16.4244 16.7036 16.179 16.9829L11.4489 18.5906V11.4573H18.5906Z" fill="white"/>
<path d="M22.5 0V14.1143C20.3846 14.1143 18.4553 14.8928 16.9829 16.1875L18.5991 11.4573L22.5 0Z" fill="#1693D6"/>
<path d="M28.0171 16.179C26.5448 14.8928 24.6155 14.1059 22.5 14.1059V0L26.4009 11.4573L28.0171 16.179Z" fill="#2E3F91"/>
<path d="M28.0171 28.8125L26.4009 33.5427L22.4915 45V30.8857C24.6154 30.8857 26.5447 30.1072 28.0171 28.8125Z" fill="#1693D6"/>
<path d="M22.5 30.8857V45L18.5906 33.5427L16.9744 28.8125C18.4552 30.1072 20.3845 30.8857 22.5 30.8857Z" fill="#2E3F91"/>
<path d="M45 22.5H30.8856C30.8856 20.3845 30.1072 18.4552 28.8125 16.9829L33.5342 18.5906L45 22.5Z" fill="#1693D6"/>
<path d="M45 22.5L33.5427 26.4009L28.821 28.0171C30.1072 26.5448 30.8941 24.607 30.8941 22.5H45Z" fill="#2E3F91"/>
<path d="M16.179 28.0171L11.4573 26.4009L0 22.5H14.1143C14.1143 24.607 14.8928 26.5448 16.179 28.0171Z" fill="#1693D6"/>
<path d="M16.179 16.9744C14.8928 18.4468 14.1059 20.3761 14.1059 22.4915H0L11.4573 18.5822L16.179 16.9744Z" fill="#2E3F91"/>
<path d="M30.8857 22.5C30.8857 24.6154 30.1072 26.5447 28.8125 28.0171C28.5671 28.2963 28.2963 28.5671 28.0171 28.8125C26.5447 30.0987 24.6154 30.8857 22.5 30.8857C20.3845 30.8857 18.4552 30.1072 16.9829 28.8125C16.7036 28.5671 16.4329 28.2963 16.1875 28.0171C14.9013 26.5447 14.1143 24.607 14.1143 22.5C14.1143 20.3845 14.8928 18.4552 16.1875 16.9829C16.4329 16.6952 16.7036 16.4329 16.9829 16.1875C18.4552 14.9013 20.393 14.1143 22.5 14.1143C24.6154 14.1143 26.5447 14.8928 28.0171 16.1875C28.3048 16.4329 28.5671 16.7036 28.8125 16.9829C30.1072 18.4552 30.8857 20.3845 30.8857 22.5Z" fill="#FCFDFF"/>
</g>
<defs>
<clipPath id="clip0_5_12">
<rect width="176" height="34" fill="white" transform="translate(57 5)"/>
</clipPath>
<clipPath id="clip1_5_12">
<rect width="45" height="45" fill="white"/>
</clipPath>
</defs>
</svg>
