<svg width="32" height="32" viewBox="0 0 32 32" fill="none" xmlns="http://www.w3.org/2000/svg">
<circle cx="16" cy="16" r="16" fill="#1693D6"/>
<path d="M23.952 11.4085C23.336 11.6885 22.72 11.8565 21.992 11.9685C22.664 11.5205 23.224 10.9045 23.504 10.1205C22.832 10.5125 22.104 10.7925 21.376 10.9605C20.76 10.2885 19.864 9.89648 18.912 9.89648C17.064 9.89648 15.496 11.4085 15.496 13.3125C15.496 13.5925 15.552 13.8165 15.608 14.0965C12.808 13.9845 10.288 12.5845 8.60798 10.5685C8.32798 10.9605 8.15998 11.5205 8.15998 12.1365C8.15998 13.3125 8.77598 14.3765 9.67198 14.9365C9.11198 14.9365 8.60798 14.7685 8.15998 14.4885V14.5445C8.15998 16.1685 9.33598 17.5685 10.904 17.8485C10.624 17.9045 10.344 17.9605 10.008 17.9605C9.78398 17.9605 9.55998 17.9605 9.39198 17.9045C9.83998 19.2485 11.072 20.2565 12.584 20.2565C11.408 21.1525 9.95198 21.7125 8.38398 21.7125C8.10398 21.7125 7.82398 21.7125 7.59998 21.6565C8.94398 22.7205 10.736 23.2805 12.64 23.2805C18.856 23.2805 22.272 18.1285 22.272 13.6485V13.2005C22.944 12.6965 23.504 12.1365 23.952 11.4085Z" fill="white"/>
</svg>
