<svg width="293" height="340" viewBox="0 0 293 340" fill="none" xmlns="http://www.w3.org/2000/svg">
<path fill-rule="evenodd" clip-rule="evenodd" d="M3.13416 116.795C3.13416 53.8251 54.1627 2.80566 117.145 2.80566C180.127 2.80566 231.156 53.8251 231.156 116.795C231.156 117.485 231.715 118.045 232.406 118.045H286.35L269.75 125.887C269.125 126.182 268.858 126.927 269.153 127.552C269.448 128.176 270.193 128.443 270.817 128.148L291.964 118.157C292.401 117.951 292.68 117.511 292.68 117.027C292.68 116.988 292.678 116.95 292.675 116.911C292.678 116.873 292.68 116.834 292.68 116.795C292.68 116.104 292.12 115.545 291.43 115.545H291.219L270.817 105.906C270.193 105.612 269.448 105.878 269.153 106.503C268.858 107.127 269.125 107.872 269.75 108.167L285.366 115.545H233.649C232.979 51.7701 181.09 0.305664 117.145 0.305664C52.7825 0.305664 0.634155 52.4439 0.634155 116.795C0.634155 181.146 52.7825 233.284 117.145 233.284C170.235 233.284 214.864 197.818 228.958 149.439C229.151 148.776 228.77 148.083 228.108 147.89C227.445 147.696 226.751 148.077 226.558 148.74C212.766 196.084 169.091 230.784 117.145 230.784C54.1627 230.784 3.13416 179.765 3.13416 116.795Z" fill="url(#paint0_linear_481_423)"/>
<path fill-rule="evenodd" clip-rule="evenodd" d="M247.096 149.625C247.264 148.955 246.856 148.277 246.187 148.109C245.517 147.942 244.838 148.349 244.671 149.019C230.399 206.096 178.835 248.441 117.145 248.441C116.454 248.441 115.895 249.001 115.895 249.691V317.314C110.549 318.048 106.367 322.689 106.367 328.221C106.367 334.256 111.342 339.229 117.377 339.229C123.412 339.229 128.387 334.256 128.387 328.221C128.387 322.53 123.961 317.782 118.395 317.261V250.936C180.706 250.368 232.649 207.401 247.096 149.625ZM108.867 328.221C108.867 323.568 112.723 319.713 117.377 319.713C122.032 319.713 125.887 323.568 125.887 328.221C125.887 332.875 122.032 336.729 117.377 336.729C112.723 336.729 108.867 332.874 108.867 328.221Z" fill="url(#paint1_linear_481_423)"/>
<path d="M214.512 117.027C214.512 170.697 171.057 214.144 117.377 214.144C63.6974 214.144 20.2422 170.697 20.2422 117.027C20.0098 63.3574 63.465 19.9104 117.145 19.9104C171.057 19.9104 214.512 63.3574 214.512 117.027Z" fill="url(#paint2_linear_481_423)"/>
<defs>
<linearGradient id="paint0_linear_481_423" x1="0.634155" y1="116.795" x2="285.771" y2="116.795" gradientUnits="userSpaceOnUse">
<stop stop-color="#FC6717"/>
<stop offset="1" stop-color="#3D1CD9"/>
</linearGradient>
<linearGradient id="paint1_linear_481_423" x1="106.367" y1="243.651" x2="243.804" y2="243.651" gradientUnits="userSpaceOnUse">
<stop stop-color="#FC6717"/>
<stop offset="1" stop-color="#3D1CD9"/>
</linearGradient>
<linearGradient id="paint2_linear_481_423" x1="48.0558" y1="47.8722" x2="185.318" y2="185.16" gradientUnits="userSpaceOnUse">
<stop stop-color="white"/>
<stop offset="1" stop-color="#B9B9B9"/>
</linearGradient>
</defs>
</svg>
