<svg width="146" height="127" viewBox="0 0 146 127" fill="none" xmlns="http://www.w3.org/2000/svg">
<path fill-rule="evenodd" clip-rule="evenodd" d="M50 3.25024C24.1783 3.25024 3.25 24.2451 3.25 50.1672C3.25 76.0893 24.1783 97.0841 50 97.0841C50.6904 97.0841 51.25 97.6438 51.25 98.3341L51.25 121.437L53.0239 119.219C53.4552 118.68 54.2418 118.593 54.7809 119.024C55.3199 119.455 55.4073 120.242 54.9761 120.781L50.9761 125.781C50.7389 126.078 50.3797 126.25 50 126.25C49.6203 126.25 49.2611 126.078 49.0239 125.781L45.0239 120.781C44.5926 120.242 44.68 119.455 45.2191 119.024C45.7582 118.593 46.5448 118.68 46.9761 119.219L48.75 121.437L48.75 99.5685C22.1177 98.9034 0.749998 77.0426 0.749997 50.1672C0.749995 22.8726 22.7894 0.750243 50 0.750242C77.2106 0.750241 99.25 22.8726 99.25 50.1672C99.25 72.6834 84.2573 91.6132 63.8023 97.5917C63.1397 97.7854 62.4455 97.4052 62.2518 96.7426C62.0581 96.0799 62.4383 95.3858 63.1009 95.1921C82.5169 89.5173 96.75 71.545 96.75 50.1672C96.75 24.2451 75.8217 3.25024 50 3.25024Z" fill="url(#paint0_linear_123_1231)"/>
<path fill-rule="evenodd" clip-rule="evenodd" d="M65.3031 104.213C64.6333 104.38 63.9547 103.973 63.7873 103.303C63.62 102.633 64.0273 101.955 64.697 101.787C88.3417 95.8796 105.882 74.5345 105.882 49.0002C105.882 48.3098 106.442 47.7502 107.132 47.7502L134.902 47.7502C135.469 45.4647 137.549 43.7502 140 43.7502C142.881 43.7502 145.25 46.1194 145.25 49.0002C145.25 51.881 142.881 54.2502 140 54.2502C137.549 54.2502 135.469 52.5357 134.902 50.2502L108.368 50.2502C107.806 76.4056 89.6452 98.1308 65.3031 104.213ZM140 46.2502C138.5 46.2502 137.25 47.5001 137.25 49.0002C137.25 50.5003 138.5 51.7502 140 51.7502C141.5 51.7502 142.75 50.5003 142.75 49.0002C142.75 47.5001 141.5 46.2502 140 46.2502Z" fill="url(#paint1_linear_123_1231)"/>
<defs>
<linearGradient id="paint0_linear_123_1231" x1="50" y1="126.25" x2="50" y2="3.71917" gradientUnits="userSpaceOnUse">
<stop stop-color="#FC6717"/>
<stop offset="1" stop-color="#3D1CD9"/>
</linearGradient>
<linearGradient id="paint1_linear_123_1231" x1="104.5" y1="104.25" x2="104.5" y2="45.1814" gradientUnits="userSpaceOnUse">
<stop stop-color="#FC6717"/>
<stop offset="1" stop-color="#3D1CD9"/>
</linearGradient>
</defs>
</svg>
